# xmcd
#
# Track frame offsets:
#	150
#	27597
#	44553
#	62866
#	79312
#	98028
#	113327
#	131555
#	143327
#	164404
#	184269
#	198668
#	219591
#
# Disc length: 3287 seconds
#
# Revision: 0
# Processed by: cddbd v1.5.2PL0 Copyright (c) Steve Scherf et al.
# Submitted via: audiograbber 1.83.01
#
DISCID=bb0cd50d
DTITLE=Johnny Hernandez - This Time (Again)
DYEAR=1900
DGENRE=
TTITLE0=Sweet Home Chicago
TTITLE1=Further On Up The Road
TTITLE2=Down Home Blues
TTITLE3=Kansas City
TTITLE4=Stagger Lee
TTITLE5=C. C. Rider
TTITLE6=Confidential
TTITLE7=Just A Dream
TTITLE8=This Time
TTITLE9=Willie And The Hand Jive
TTITLE10=Bump And Grind
TTITLE11=Wicked Wicked Woman
TTITLE12=Todo Me Gusta De Ti
EXTD=
EXTT0=
EXTT1=
EXTT2=
EXTT3=
EXTT4=
EXTT5=
EXTT6=
EXTT7=
EXTT8=
EXTT9=
EXTT10=
EXTT11=
EXTT12=
PLAYORDER=
